# xmcd
#
# Track frame offsets: 
#        150
#        6163
#        15162
#        22211
#        41432
#        62205
#        81513
#        88762
#        112765
#        129637
#        134062
#        149875
#        164587
#        177675
#        198137
#
# Disc length: 2647 seconds
#
# Revision: 0
# Processed by: cddbd v1.5.1PL2 Copyright (c) Steve Scherf et al.
# Submitted via: ExactAudioCopy v0.95b4
#
DISCID=da0a550f
DTITLE=DJ Screw - Screw Tape In The Deck, Vol. 2: Texas To The World
DYEAR=2005
DGENRE=Rap
TTITLE0=Blowin' Charges
TTITLE1=Swisher In The Air
TTITLE2=Straight Foreign
TTITLE3=Candy Cars
TTITLE4=Right Lane
TTITLE5=Roll Wit Me
TTITLE6=Lean Tonight (Remix)
TTITLE7=Sunny Outside (Remix)
TTITLE8=Come Smoke
TTITLE9=Startched (Freesyle)
TTITLE10=Soufside So Real
TTITLE11=On 20's
TTITLE12=Stay Fly
TTITLE13=Texasmade
TTITLE14=Outro
EXTD=
EXTT0=
EXTT1=
EXTT2=
EXTT3=
EXTT4=
EXTT5=
EXTT6=
EXTT7=
EXTT8=
EXTT9=
EXTT10=
EXTT11=
EXTT12=
EXTT13=
EXTT14=
PLAYORDER=
